<svg width="72" height="72" viewBox="0 0 72 72" fill="none" xmlns="http://www.w3.org/2000/svg">
<g id="coffee-bean">
<path id="Shape" fill-rule="evenodd" clip-rule="evenodd" d="M58.5481 13.1037C65.8077 20.4657 70.3383 29.7448 71.3057 39.2263C72.2952 48.8834 69.4819 57.6044 63.3937 63.774C58.0999 69.1425 50.9112 72 42.8706 72C41.6592 72 40.43 71.9325 39.1831 71.802C29.8334 70.821 20.6834 66.2265 13.4238 58.8644C-1.69016 43.5373 -3.86451 20.8122 8.57807 8.19415C21.0118 -4.42828 43.4297 -2.21877 58.5481 13.1037ZM33.0284 40.0363C38.8592 41.6563 44.2285 43.1728 49.1806 47.0069C53.0639 50.0144 55.8299 53.8364 58.6269 57.7013C59.9146 59.4806 61.2088 61.2689 62.6216 62.9911C60.9887 48.6585 53.8843 36.3464 39.5248 32.1209C39.3009 32.0552 39.0778 31.9897 38.8553 31.9245C32.577 30.0836 26.8438 28.4026 21.6197 24.0479C18.26 21.2453 15.7865 17.7667 13.299 14.2682C12.0279 12.4806 10.7532 10.6878 9.35462 8.97729C11.0586 23.5347 18.3493 35.9548 33.0284 40.0363Z" fill="#FDD6BA"/>
</g>
</svg>
